<svg xmlns="http://www.w3.org/2000/svg" version="1.1" xmlns:xlink="http://www.w3.org/1999/xlink" xmlns:svgjs="http://svgjs.com/svgjs" width="512" height="512" x="0" y="0" viewBox="0 0 64 64" style="enable-background:new 0 0 512 512" xml:space="preserve" class=""><g><g id="Layer1"><g fill-rule="nonzero"><path d="m49 56h-44c-2.209 0-4-1.791-4-4v-34c0-2.209 1.791-4 4-4h44c2.209 0 4 1.791 4 4v34c0 2.209-1.791 4-4 4z" fill="#ffffff" data-original="#ffffff" class=""></path><path d="m1 22v-4c0-2.209 1.791-4 4-4h44c2.209 0 4 1.791 4 4v4z" fill="#e51158" data-original="#e51158"></path><path d="m7 18c0 .552-.448 1-1 1s-1-.448-1-1 .448-1 1-1 1 .448 1 1" fill="#ffb246" data-original="#ffb246"></path><path d="m11 18c0 .552-.448 1-1 1s-1-.448-1-1 .448-1 1-1 1 .448 1 1" fill="#ffffff" data-original="#ffffff" class=""></path><path d="m15 18c0 .552-.448 1-1 1s-1-.448-1-1 .448-1 1-1 1 .448 1 1" fill="#00bce5" data-original="#00bce5"></path><path d="m14 42h26c3.314 0 6-2.686 6-6s-2.686-6-6-6h-26c-3.314 0-6 2.686-6 6s2.686 6 6 6z" fill="#52ce5c" data-original="#52ce5c" class=""></path></g><path d="m13.172 36-.707.707c-.39.39-.39 1.024 0 1.414s1.024.39 1.414 0l.707-.707.706.707c.391.39 1.024.39 1.415 0 .39-.39.39-1.024 0-1.414l-.707-.707.707-.707c.39-.39.39-1.024 0-1.414-.39-.391-1.024-.391-1.414 0l-.707.707-.707-.707c-.391-.391-1.024-.391-1.415 0-.39.39-.39 1.024 0 1.414zm24.828 0-.707.707c-.39.39-.39 1.024 0 1.414.391.39 1.024.39 1.415 0l.706-.707.707.707c.39.39 1.024.39 1.414 0s.39-1.024 0-1.414l-.707-.707.708-.707c.39-.39.39-1.024 0-1.414-.391-.391-1.024-.391-1.415 0l-.707.707-.707-.707c-.39-.391-1.024-.391-1.414 0-.39.39-.39 1.024 0 1.414zm-16.485 0-.707.707c-.39.39-.39 1.024 0 1.414s1.024.39 1.414 0l.707-.707.707.707c.39.39 1.024.39 1.414 0s.39-1.024 0-1.414l-.707-.707.707-.707c.39-.39.39-1.024 0-1.414-.39-.391-1.024-.391-1.414 0l-.707.707-.707-.707c-.39-.391-1.024-.391-1.414 0-.391.39-.391 1.024 0 1.414zm8.485 0-.707.707c-.39.39-.39 1.024 0 1.414.391.39 1.024.39 1.415 0l.706-.707.707.707c.39.39 1.024.39 1.414 0s.39-1.024 0-1.414l-.707-.707.708-.707c.39-.39.39-1.024 0-1.414-.391-.391-1.024-.391-1.415 0l-.707.707-.707-.707c-.39-.391-1.024-.391-1.414 0-.39.39-.39 1.024 0 1.414z" fill="#ffffff" data-original="#ffffff" class=""></path><path d="m53.532 41.104c-4.543-.614-8.633 1.552-10.829 5.034-.731 1.158-2.002 1.862-3.372 1.862h-7.095c-.155 0-.308.036-.447.106l-3.341 1.671c-.282.14-.613.14-.895 0l-3.105-1.553c-.282-.141-.613-.141-.895 0l-3.105 1.553c-.282.14-.613.14-.895 0l-2.806-1.403c-.432-.217-.957-.093-1.247.294l-2.05 2.732c-.266.356-.266.845 0 1.2l2.25 3c.189.252.486.4.8.4h22.831c1.378 0 2.647.719 3.385 1.884 1.949 3.074 5.375 5.116 9.284 5.116 6.501 0 11.685-5.639 10.927-12.293-.561-4.917-4.49-8.94-9.395-9.603z" fill="#ffb246" fill-rule="nonzero" data-original="#ffb246"></path><path d="m59 52c0-1.656-1.344-3-3-3s-3 1.344-3 3 1.344 3 3 3 3-1.344 3-3z" fill="#ffffff" data-original="#ffffff" class=""></path><path d="m48.077 29.899 1.923 1.101 1.924-1.101c7.678-4.395 11.963-12.79 10.922-21.399l-12.846-7.5-12.845 7.5c-1.041 8.609 3.244 17.004 10.922 21.399z" fill="#00bce5" fill-rule="nonzero" data-original="#00bce5"></path><path d="m44 18c0 3.311 2.689 6 6 6s6-2.689 6-6-2.689-6-6-6-6 2.689-6 6z" fill="#ffffff" data-original="#ffffff" class=""></path></g><g id="ICON"><path d="m36.084 13c-.133-1.52-.111-3.067.077-4.62.038-.311.219-.586.489-.744l12.845-7.5c.311-.181.697-.181 1.008 0l12.846 7.5c.27.158.451.433.489.744 1.015 8.396-2.807 16.601-9.838 21.398v10.385c5.196.857 9.32 5.176 9.92 10.431.827 7.257-4.83 13.406-11.921 13.406-4.264 0-8.002-2.227-10.129-5.581-.546-.863-1.479-1.405-2.498-1.419h-34.372c-2.762 0-5-2.239-5-5v-34c0-2.761 2.238-5 5-5zm17.313 29.095c-4.131-.559-7.852 1.409-9.849 4.577-.914 1.448-2.504 2.328-4.218 2.328h-7.094l-3.344 1.672c-.562.28-1.222.28-1.784 0l-3.108-1.554-3.108 1.554c-.562.28-1.222.28-1.784 0l-2.809-1.404-2.05 2.732s2.25 3 2.25 3h22.831c1.721 0 3.308.894 4.23 2.348 1.772 2.795 4.886 4.652 8.439 4.652 5.911 0 10.623-5.13 9.934-11.18-.51-4.467-4.079-8.123-8.536-8.725zm6.603 9.905c0-2.208-1.793-4-4-4-2.208 0-4 1.792-4 4s1.792 4 4 4c2.207 0 4-1.792 4-4zm-20.543-29h-37.457v29c0 1.657 1.343 3 3 3h8.999l-1.35-1.801c-.532-.709-.532-1.686-.001-2.398l2.051-2.733c.58-.775 1.631-1.022 2.494-.589 0 0 2.806 1.403 2.804 1.402.002.001.004.001.003.001 0 0 3.105-1.553 3.105-1.553.564-.282 1.226-.282 1.789 0h.001s3.105 1.553 3.102 1.552c.002.001.004.001.003.001 0 0 3.341-1.671 3.338-1.669.279-.141.586-.213.897-.213h7.095c1.027 0 1.979-.528 2.526-1.396 2.123-3.366 5.869-5.606 10.144-5.604v-8.993l-1.504.861c-.308.176-.686.176-.994 0l-1.923-1.101c-3.391-1.942-6.149-4.63-8.122-7.767zm18.543 29c0 1.104-.897 2-2 2-1.104 0-2-.896-2-2s.896-2 2-2c1.103 0 2 .896 2 2zm-44-9h26c3.866 0 7-3.134 7-7s-3.134-7-7-7h-26c-3.867 0-7 3.134-7 7s3.133 7 7 7zm0-2c-2.762 0-5-2.238-5-5s2.238-5 5-5h26c2.761 0 5 2.238 5 5s-2.239 5-5 5zm47.905-31.891-11.906-6.951-11.905 6.951c-.776 8.041 3.3 15.813 10.479 19.922l1.426.817 1.427-.817c7.179-4.109 11.255-11.881 10.479-19.922zm-15.877 3.128c-.019-.076-.028-.155-.028-.237v-2c0-2.209 1.79-4 4-4 2.209 0 4 1.791 4 4v2c0 .082-.01.161-.029.237 1.829 1.263 3.029 3.374 3.029 5.763 0 3.863-3.137 7-7 7-3.864 0-7-3.137-7-7 0-2.389 1.199-4.5 3.028-5.763zm-1.028 5.763c0-2.76 2.24-5 5-5 2.759 0 5 2.24 5 5s-2.241 5-5 5c-2.76 0-5-2.24-5-5zm-8.649-3h-31.351c-1.657 0-3 1.343-3 3v3h36.336c-.938-1.893-1.609-3.911-1.985-6zm12.649 3.733c-.598-.346-1-.992-1-1.733 0-1.105.895-2 2-2s2 .895 2 2c0 .741-.403 1.387-1 1.733v1.267c0 .552-.448 1-1 1s-1-.448-1-1zm3-7.443v-1.29c0-1.105-.896-2-2-2-1.105 0-2 .895-2 2v1.29c.633-.188 1.305-.29 2-.29s1.366.102 2 .29z" fill="#4d0d19" data-original="#4d0d19"></path></g></g></svg>